<svg width="12" height="23" viewBox="0 0 12 23" fill="none" xmlns="http://www.w3.org/2000/svg">
<path d="M10.8729 0.498957H7.61668C3.46953 0.457461 2.93984 3.02411 2.93984 5.80189V7.82177H1.10914C1.0264 7.81071 0.942218 7.81888 0.863143 7.84564C0.784069 7.8724 0.712227 7.91703 0.653198 7.97606C0.594169 8.03509 0.549542 8.10693 0.522784 8.186C0.496025 8.26508 0.487854 8.34925 0.498907 8.432V12.0934C0.487854 12.1761 0.496025 12.2603 0.522784 12.3394C0.549542 12.4185 0.594169 12.4903 0.653198 12.5493C0.712227 12.6084 0.784069 12.653 0.863143 12.6798C0.942218 12.7065 1.0264 12.7147 1.10914 12.7036H2.93984V21.8571C2.92967 21.94 2.93858 22.0242 2.9659 22.1031C2.99321 22.182 3.0382 22.2536 3.09743 22.3125C3.15666 22.3714 3.22856 22.416 3.30765 22.4428C3.38673 22.4696 3.47091 22.478 3.55374 22.4674H7.28227C7.64231 22.5089 7.934 22.2172 7.81927 21.8571L7.82172 12.7036H10.8729C10.9556 12.7147 11.0398 12.7065 11.1189 12.6798C11.198 12.653 11.2698 12.6084 11.3288 12.5493C11.3879 12.4903 11.4325 12.4185 11.4592 12.3394C11.486 12.2603 11.4942 12.1761 11.4831 12.0934V8.432C11.4942 8.34925 11.486 8.26508 11.4592 8.186C11.4325 8.10693 11.3879 8.03509 11.3288 7.97606C11.2698 7.91703 11.198 7.8724 11.1189 7.84564C11.0398 7.81888 10.9556 7.81071 10.8729 7.82177H7.81805L7.82172 5.99106C7.9401 5.21118 7.9401 5.33811 8.66384 5.38083H10.8473C11.0169 5.34299 11.1975 5.36374 11.3245 5.24048C11.4514 5.11721 11.5246 4.94878 11.4819 4.7706V1.10919C11.4932 1.02651 11.4852 0.942351 11.4586 0.863264C11.432 0.784177 11.3875 0.712301 11.3285 0.65324C11.2696 0.594179 11.1978 0.549527 11.1188 0.522766C11.0397 0.496005 10.9556 0.487857 10.8729 0.498957ZM10.2199 4.09202L8.68947 4.03343C6.79408 4.03343 6.63542 5.06229 6.63542 6.11555L6.63054 8.42956C6.63038 8.51525 6.64712 8.60013 6.6798 8.67934C6.71248 8.75855 6.76046 8.83054 6.821 8.89119C6.88153 8.95184 6.95343 8.99995 7.03258 9.03278C7.11173 9.06561 7.19658 9.08251 7.28227 9.08251H10.2627V11.4405H7.28471C7.11175 11.4405 6.94585 11.5091 6.82343 11.6313C6.70102 11.7535 6.63208 11.9192 6.63176 12.0922L6.63054 21.2469H4.16031V12.0934C4.16031 11.7334 3.915 11.4417 3.55374 11.4417H1.71937V9.08373H3.55374C3.63937 9.08386 3.7242 9.06711 3.80335 9.03444C3.88251 9.00177 3.95446 8.95382 4.01507 8.89334C4.13712 8.77007 4.15909 8.60408 4.15909 8.43078V5.80067C4.15909 3.06438 4.71196 1.76092 7.61546 1.76092H10.2187V4.09202H10.2199Z" fill="#828282"/>
</svg>
