<svg width="22" height="22" viewBox="0 0 22 22" fill="none" xmlns="http://www.w3.org/2000/svg">
<path d="M15.8125 21.3125H6.1875C4.72881 21.3125 3.32986 20.733 2.29841 19.7016C1.26696 18.6701 0.6875 17.2712 0.6875 15.8125V6.1875C0.6875 4.72881 1.26696 3.32986 2.29841 2.29841C3.32986 1.26696 4.72881 0.6875 6.1875 0.6875H15.8125C17.2712 0.6875 18.6701 1.26696 19.7016 2.29841C20.733 3.32986 21.3125 4.72881 21.3125 6.1875V15.8125C21.3125 17.2712 20.733 18.6701 19.7016 19.7016C18.6701 20.733 17.2712 21.3125 15.8125 21.3125Z" stroke="#828282" stroke-width="1.5" stroke-miterlimit="10"/>
<path d="M11 15.8125C13.6579 15.8125 15.8125 13.6579 15.8125 11C15.8125 8.34213 13.6579 6.1875 11 6.1875C8.34213 6.1875 6.1875 8.34213 6.1875 11C6.1875 13.6579 8.34213 15.8125 11 15.8125Z" stroke="#828282" stroke-width="1.5" stroke-miterlimit="10"/>
<path d="M17.1875 5.5C17.5672 5.5 17.875 5.1922 17.875 4.8125C17.875 4.4328 17.5672 4.125 17.1875 4.125C16.8078 4.125 16.5 4.4328 16.5 4.8125C16.5 5.1922 16.8078 5.5 17.1875 5.5Z" stroke="#828282" stroke-miterlimit="10"/>
</svg>
