<svg width="21" height="24" viewBox="0 0 21 24" fill="none" xmlns="http://www.w3.org/2000/svg">
<path d="M14.4578 7.06982C13.5574 7.06982 12.8907 7.29691 12.3689 7.58375C12.2852 7.28628 12.0103 7.0685 11.6863 7.13357H7.72362C7.33187 7.0685 7.01449 7.38588 7.13533 7.79755V22.4052C7.01449 22.777 7.33187 23.0958 7.72362 23.0692H11.6863C12.078 23.0958 12.3954 22.777 12.3954 22.3853L12.3941 13.557C12.3928 13.553 12.3782 13.1307 12.6451 12.8399C12.8589 12.6088 13.2267 12.4906 13.7353 12.4906C14.5826 12.4906 14.9597 12.8372 15.1005 13.6127V22.3853C14.9611 22.777 15.2784 23.0958 15.6702 23.0692H19.8467C20.2384 23.0958 20.5558 22.777 20.415 22.3853V13.3179C20.5545 8.70721 17.2704 7.06982 14.4578 7.06982ZM19.1362 21.7412H16.3793V13.6127C16.3793 12.0444 15.3661 11.0723 13.7367 11.0723C12.8151 11.0723 12.0979 11.3432 11.6039 11.8771C10.9174 12.6207 10.9705 13.5636 11.1179 13.7734V21.7412H8.43276V8.4881H10.9771V8.93429C10.9761 9.06721 11.0126 9.19773 11.0824 9.31085C11.1522 9.42396 11.2525 9.51509 11.3718 9.57376C11.4911 9.63243 11.6245 9.65625 11.7567 9.6425C11.8889 9.62875 12.0145 9.57798 12.1192 9.49603L12.3051 9.3526C12.8429 8.92898 13.3994 8.48942 14.4591 8.48942C15.556 8.48942 19.1375 8.83868 19.1375 13.3193V21.7412H19.1362Z" fill="#828282"/>
<path d="M3.15009 0.44873C1.66011 0.44873 0.449005 1.65984 0.449005 3.14982C0.449005 4.6398 1.66011 5.85091 3.15009 5.85091C4.64008 5.85091 5.85118 4.6398 5.85118 3.14982C5.85118 1.65984 4.64008 0.44873 3.15009 0.44873ZM3.15009 4.43264C2.44362 4.43264 1.86728 3.8563 1.86728 3.14982C1.86728 2.44334 2.44362 1.867 3.15009 1.867C3.85657 1.867 4.43291 2.44334 4.43291 3.14982C4.43291 3.8563 3.85657 4.43264 3.15009 4.43264Z" fill="#828282"/>
<path d="M5.04643 7.06885H1.10502C0.713269 7.06885 0.395884 7.38623 0.494154 7.7979V22.4056C0.395884 22.7774 0.713269 23.0961 1.10502 23.0695H5.04643C5.43819 23.0961 5.75557 22.7774 5.75557 22.3856V7.77798C5.75557 7.58991 5.68086 7.40954 5.54787 7.27655C5.41488 7.14356 5.23451 7.06885 5.04643 7.06885ZM4.47806 21.7416H1.81416V8.48845H4.47806V21.7416Z" fill="#828282"/>
</svg>
