<svg width="25" height="22" viewBox="0 0 25 22" fill="none" xmlns="http://www.w3.org/2000/svg">
<path d="M24.0162 0.753572C23.745 0.525687 23.4168 0.375966 23.0668 0.320472C22.7169 0.264977 22.3585 0.305804 22.03 0.438572L1.98375 8.46232C1.69153 8.5837 1.44183 8.78894 1.26616 9.05213C1.0905 9.31532 0.996747 9.62465 0.996747 9.94107C0.996747 10.2575 1.0905 10.5668 1.26616 10.83C1.44183 11.0932 1.69153 11.2984 1.98375 11.4198L3.27875 11.9536C3.49227 12.0439 3.7329 12.0458 3.94782 11.9588C4.16273 11.8719 4.33435 11.7032 4.425 11.4898C4.46947 11.3836 4.49252 11.2696 4.49282 11.1544C4.49313 11.0392 4.47069 10.9251 4.42679 10.8186C4.38289 10.7121 4.3184 10.6153 4.23701 10.5338C4.15562 10.4523 4.05893 10.3876 3.9525 10.3436L2.99 9.94982L22.6862 2.07482C22.7165 2.05626 22.7514 2.04643 22.7869 2.04643C22.8224 2.04643 22.8572 2.05626 22.8875 2.07482C22.9161 2.09907 22.9376 2.13052 22.9499 2.16591C22.9622 2.2013 22.9648 2.23933 22.9575 2.27607L19.3612 19.0586C19.3495 19.1183 19.3223 19.174 19.2824 19.22C19.2425 19.2661 19.1912 19.3009 19.1337 19.3211C19.0773 19.3435 19.016 19.3504 18.956 19.3412C18.896 19.3319 18.8396 19.3069 18.7925 19.2686L11.7925 13.8086L18.6438 6.88732C18.7901 6.73548 18.8767 6.53588 18.8876 6.32526C18.8985 6.11465 18.8329 5.90719 18.703 5.74106C18.5731 5.57494 18.3875 5.46132 18.1805 5.42113C17.9735 5.38094 17.7589 5.41687 17.5762 5.52232L7.53125 11.4723C7.41968 11.5227 7.31994 11.596 7.23846 11.6874C7.15699 11.7788 7.09561 11.8863 7.05827 12.0029C7.02094 12.1195 7.0085 12.2426 7.02174 12.3643C7.03499 12.486 7.07363 12.6036 7.13516 12.7095C7.1967 12.8153 7.27977 12.9071 7.37899 12.9788C7.47821 13.0505 7.59138 13.1006 7.71118 13.1259C7.83098 13.1511 7.95475 13.1509 8.07448 13.1253C8.19421 13.0998 8.30723 13.0493 8.40625 12.9773L12.6325 10.4836L10.5762 12.5748C10.3881 12.7516 10.2415 12.9677 10.1467 13.2078C10.052 13.4479 10.0115 13.706 10.0282 13.9636C10.045 14.2212 10.1185 14.4718 10.2435 14.6977C10.3685 14.9235 10.5419 15.1189 10.7512 15.2698L17.7512 20.6511C18.1197 20.9354 18.5721 21.0893 19.0375 21.0886C19.2853 21.0868 19.531 21.0424 19.7637 20.9573C20.098 20.8373 20.3958 20.6335 20.6287 20.3654C20.8616 20.0973 21.0217 19.7738 21.0937 19.4261L24.6637 2.66107C24.7395 2.3143 24.7193 1.95342 24.6052 1.61731C24.4911 1.28119 24.2875 0.982556 24.0162 0.753572Z" fill="#828282"/>
</svg>
