<svg width="23" height="19" viewBox="0 0 23 19" fill="none" xmlns="http://www.w3.org/2000/svg">
<path d="M21.4305 2.45078C21.5718 2.18916 21.6883 1.91484 21.7783 1.63145C21.82 1.5 21.8209 1.35899 21.7808 1.22705C21.7406 1.09511 21.6615 0.978438 21.5536 0.892441C21.4458 0.806443 21.3145 0.755164 21.1769 0.745375C21.0394 0.735585 20.9021 0.767745 20.7832 0.837609C20.1302 1.22549 19.4234 1.51449 18.6858 1.69517C17.7903 0.887015 16.6274 0.438998 15.4212 0.4375C14.7659 0.438003 14.1174 0.570826 13.5147 0.828002C12.9119 1.08518 12.3673 1.46142 11.9135 1.93416C11.4597 2.4069 11.106 2.96641 10.8736 3.57914C10.6413 4.19188 10.535 4.84523 10.5613 5.50002C7.69557 5.13926 5.07871 3.68914 3.25359 1.45051C3.18366 1.3657 3.09429 1.29902 2.99308 1.25614C2.89186 1.21326 2.7818 1.19544 2.67222 1.20419C2.56265 1.21295 2.45681 1.24802 2.36369 1.30644C2.27058 1.36485 2.19293 1.44487 2.13736 1.53971C1.71944 2.25701 1.49229 3.06943 1.47756 3.89946C1.46284 4.72949 1.66104 5.54945 2.05326 6.28112C1.95707 6.29735 1.86465 6.33104 1.78057 6.38051C1.67755 6.44621 1.59272 6.53679 1.53393 6.64391C1.47514 6.75103 1.44427 6.87123 1.44418 6.99342C1.44418 8.43967 2.08766 9.76742 3.12489 10.6696L3.08029 10.7142C3.00198 10.8028 2.94811 10.9102 2.92398 11.026C2.89985 11.1417 2.90629 11.2617 2.94267 11.3742C3.15896 12.049 3.52009 12.6683 4.0008 13.1888C4.48151 13.7094 5.07017 14.1186 5.72559 14.3878C4.37948 15.0444 2.87305 15.3005 1.38556 15.1256C1.23266 15.11 1.07891 15.1455 0.948397 15.2267C0.817884 15.3079 0.717983 15.4301 0.664348 15.5741C0.612842 15.7192 0.611875 15.8774 0.661604 16.0232C0.711334 16.1689 0.808842 16.2935 0.938308 16.3769C2.96053 17.6747 5.31306 18.3642 7.71594 18.3634C15.5907 18.3634 20.2977 11.9667 20.2977 5.7829L20.2964 5.57392C21.0596 4.97811 21.7225 4.26401 22.26 3.4587C22.3414 3.33696 22.3814 3.19224 22.3742 3.04597C22.3669 2.89971 22.3127 2.75967 22.2197 2.6466C22.1266 2.53352 21.9996 2.45342 21.8575 2.41815C21.7153 2.38289 21.5656 2.39433 21.4305 2.45078ZM19.207 4.68706C19.1145 4.75355 19.0401 4.84215 18.9907 4.94476C18.9413 5.04737 18.9184 5.16073 18.9241 5.27448C18.9317 5.44268 18.9355 5.61342 18.9355 5.78162C18.9355 11.2965 14.7395 17.0012 7.71721 17.0012C6.46478 17.0018 5.22118 16.7916 4.03851 16.3794C5.45494 16.1079 6.78554 15.5005 7.91854 14.6082C8.02883 14.5213 8.10957 14.4024 8.14972 14.2678C8.18987 14.1332 8.18747 13.9895 8.14285 13.8563C8.09822 13.7231 8.01356 13.607 7.90042 13.5238C7.78729 13.4405 7.65121 13.3943 7.51079 13.3913C6.96137 13.3808 6.42211 13.2414 5.9365 12.9842C5.45089 12.727 5.03252 12.3593 4.71513 11.9107C5.03751 11.889 5.35352 11.8355 5.66061 11.7527C5.80923 11.7129 5.93999 11.6239 6.03154 11.5003C6.12309 11.3766 6.17004 11.2256 6.16472 11.0718C6.15939 10.9181 6.10212 10.7706 6.00223 10.6536C5.90235 10.5366 5.76575 10.4569 5.61473 10.4275C4.99421 10.3012 4.41968 10.0087 3.95261 9.58112C3.48553 9.15355 3.14349 8.60704 2.96306 8.00006C3.30201 8.08543 3.64987 8.13513 3.99774 8.14659C4.29718 8.14532 4.57496 7.96183 4.66798 7.67386C4.761 7.38588 4.65142 7.0686 4.39784 6.9004C3.79828 6.50093 3.33664 5.92613 3.07597 5.2545C2.8153 4.58286 2.7683 3.84713 2.9414 3.14779C5.15478 5.41887 8.14351 6.77126 11.3105 6.9348C11.5348 6.93608 11.731 6.8558 11.8674 6.69142C12.0037 6.52705 12.056 6.30915 12.0075 6.10018C11.8333 5.34966 11.9112 4.56262 12.2293 3.86086C12.5474 3.1591 13.088 2.58176 13.7673 2.21816C14.4466 1.85457 15.2268 1.72501 15.9872 1.84952C16.7475 1.97404 17.4456 2.34569 17.9735 2.90696C18.0526 2.99137 18.1519 3.05425 18.262 3.08969C18.3721 3.12514 18.4895 3.13198 18.603 3.10956C18.8132 3.06751 19.0209 3.01909 19.2261 2.96303C19.1336 3.03226 19.0374 3.09649 18.9381 3.15543C18.806 3.23637 18.7053 3.35991 18.6528 3.5057C18.6003 3.65148 18.599 3.8108 18.6492 3.95742C18.6993 4.10403 18.7979 4.22918 18.9287 4.31224C19.0595 4.39531 19.2148 4.43133 19.3688 4.41437L19.6007 4.38507C19.473 4.49026 19.3417 4.59099 19.207 4.68706Z" fill="#828282"/>
</svg>
